<svg id="Layer_2" data-name="Layer 2" xmlns="http://www.w3.org/2000/svg" viewBox="0 0 1892.07 701.26"><defs><style>.cls-1,.cls-13{font-size:40px;font-family:Caveat-Regular, Caveat;}.cls-2{letter-spacing:-0.01em;}.cls-3{fill:#271b0f;stroke:#271b0f;stroke-width:2px;}.cls-10,.cls-11,.cls-3{stroke-miterlimit:10;}.cls-4{letter-spacing:-0.01em;}.cls-5{letter-spacing:0em;}.cls-6{letter-spacing:0.01em;}.cls-7{letter-spacing:-0.01em;}.cls-8{letter-spacing:-0.02em;}.cls-9{letter-spacing:0em;}.cls-10,.cls-11{fill:none;stroke:#1a1a1a;stroke-width:4px;}.cls-11{stroke-dasharray:11.93 11.93;}.cls-12{fill:#1a1a1a;}.cls-13{letter-spacing:0.01em;}</style></defs><text class="cls-1" transform="translate(1732.05 689.3) scale(1.01 1)"><tspan class="cls-2">S</tspan><tspan x="19.04" y="0">an Diego</tspan></text><text class="cls-1" transform="translate(1438.5 442.98) scale(1.01 1)">Los Angeles</text><ellipse class="cls-3" cx="669.31" cy="400.5" rx="8.53" ry="8.61" transform="translate(-12.23 810.45) rotate(-69.92)"/><text class="cls-1" transform="translate(1126.13 592.12) scale(1.01 1)"><tspan class="cls-2">S</tspan><tspan x="19.04" y="0">anta Bar</tspan><tspan class="cls-4" x="144.76" y="0">b</tspan><tspan class="cls-5" x="161.76" y="0">ara</tspan></text><ellipse class="cls-3" cx="1506.41" cy="599.51" rx="8.53" ry="8.61" transform="matrix(0.34, -0.94, 0.94, 0.34, 350.61, 1727.38)"/><text class="cls-1" transform="translate(1446.76 544.28) scale(1.01 1)">Malibu</text><text class="cls-1" transform="translate(610.89 304.59) scale(1.01 1)"><tspan class="cls-6">B</tspan><tspan x="21.2" y="0">ig Sur</tspan></text><text class="cls-1" transform="translate(0 60.15) scale(1.01 1)"><tspan class="cls-7">M</tspan><tspan x="28.4" y="0">uir Woods</tspan></text><text class="cls-1" transform="translate(240.48 283.3) scale(1.01 1)">Carmel by the Sea</text><text class="cls-1" transform="translate(266.24 32.2) scale(1.01 1)"><tspan class="cls-7">S</tspan><tspan x="19.04" y="0">an </tspan><tspan class="cls-8" x="64.2" y="0">F</tspan><tspan class="cls-9" x="82.04" y="0">rancisco</tspan></text><ellipse class="cls-3" cx="995.51" cy="541.16" rx="8.53" ry="8.61" transform="translate(69.88 1209.2) rotate(-69.92)"/><path class="cls-10" d="M1958.18,733.58a32.09,32.09,0,0,1-5.65-2" transform="translate(-75.63 -81.23)"/><path class="cls-11" d="M1942,726c-11.16-7-27.5-20.18-47.11-44.78-37.69-47.25-109.49-35.83-123.57-49.35s-29.87-33.93-89.33-38.92-65.77-28.22-94.93-41-60.26,26.1-81.57,49.7-60.26,26.11-85.85,20.94-81.87-36.2-115.91-29.8-68,35.81-87.51,37.06-50,15.23-72.45,36.3-75-8.59-88-42.61-21.29-74.74-54.34-82.64S953,546.2,931.82,517.52s-47.28-15.19-92-31.54-52.24-42.11-138-73.45-102-33.11-114.12-75.19-10.66-98.06-49.1-91.18-50.11,21.44-66.89,15.31-31,9.6-75.13-54.66S315.24,99.68,290.85,97c-14.92-1.62-32.43-2.61-43.79-3.14" transform="translate(-75.63 -81.23)"/><path class="cls-10" d="M241.1,93.63c-3.75-.15-6-.22-6-.22" transform="translate(-75.63 -81.23)"/><ellipse class="cls-12" cx="1957.27" cy="733.44" rx="10.34" ry="10.44" transform="translate(520.92 2238.8) rotate(-69.92)"/><ellipse class="cls-12" cx="1579.74" cy="554.33" rx="10.34" ry="10.44" transform="translate(441.21 1766.58) rotate(-69.92)"/><ellipse class="cls-12" cx="1252.32" cy="617.64" rx="10.34" ry="10.44" transform="translate(166.71 1500.63) rotate(-69.92)"/><ellipse class="cls-12" cx="592.63" cy="349.29" rx="10.34" ry="10.44" transform="translate(-14.49 704.78) rotate(-69.92)"/><text class="cls-13" transform="translate(730.65 499.58) scale(1.01 1)">P<tspan class="cls-9" x="18.96" y="0">ismo Beach </tspan></text><ellipse class="cls-12" cx="316.53" cy="109.73" rx="10.34" ry="10.44" transform="translate(29.19 288.13) rotate(-69.92)"/><ellipse class="cls-12" cx="236.89" cy="93.13" rx="10.34" ry="10.44" transform="translate(-7.52 202.43) rotate(-69.92)"/></svg>